<?xml version="1.0" encoding="utf-8"?>
<!-- Generator: Adobe Adobe Illustrator 24.2.0, SVG Export Plug-In . SVG Version: 6.00 Build 0)  -->
<svg version="1.1" id="Layer_1" xmlns="http://www.w3.org/2000/svg" xmlns:xlink="http://www.w3.org/1999/xlink" x="0px" y="0px"
	 width="6520px" height="1120px" viewBox="0 0 6520 1120" style="enable-background:new 0 0 6520 1120;" xml:space="preserve">
<style type="text/css">
	.st0{fill:url(#SVGID_1_);}
	.st1{fill:url(#SVGID_2_);}
	.st2{fill:url(#SVGID_3_);}
	.st3{fill:url(#SVGID_4_);}
	.st4{fill:url(#SVGID_5_);}
	.st5{fill:#FFFFFF;}
</style>
<g>
	<linearGradient id="SVGID_1_" gradientUnits="userSpaceOnUse" x1="151.9663" y1="91.8652" x2="1698.9668" y2="91.8652">
		<stop  offset="0" style="stop-color:#07E0FE"/>
		<stop  offset="1" style="stop-color:#F30AD1"/>
	</linearGradient>
	<path class="st0" d="M1102.58,143.37h154.18c0.37-34.33,0.43-68.67,0.17-103h-155.2C1100.63,74.7,1100.85,109.06,1102.58,143.37z"
		/>
	<linearGradient id="SVGID_2_" gradientUnits="userSpaceOnUse" x1="151.9663" y1="1009.8652" x2="1698.9668" y2="1009.8652">
		<stop  offset="0" style="stop-color:#07E0FE"/>
		<stop  offset="1" style="stop-color:#F30AD1"/>
	</linearGradient>
	<path class="st1" d="M684.57,1026.5c-0.07-17.29-0.28-34.59-0.62-51.88c-0.11-5.42-0.25-10.83-0.39-16.25H576.5
		c0.02,7.52,0.03,15.04,0.06,22.56c0.12,26.82,0.35,53.63,0.64,80.44h107.3C684.58,1049.74,684.62,1038.12,684.57,1026.5z"/>
	<linearGradient id="SVGID_3_" gradientUnits="userSpaceOnUse" x1="151.9663" y1="866.6875" x2="1698.9668" y2="866.6875">
		<stop  offset="0" style="stop-color:#07E0FE"/>
		<stop  offset="1" style="stop-color:#F30AD1"/>
	</linearGradient>
	<path class="st2" d="M1595.97,672.01v123.9c0,89.58-72.88,162.46-162.46,162.46H783.57c0.17,6.75,0.32,13.49,0.45,20.24
		c0.52,27.58,0.67,55.17,0.48,82.76h649c70.91,0,137.57-27.61,187.71-77.75s77.75-116.8,77.75-187.71V673.12
		C1664.63,672.75,1630.3,672.38,1595.97,672.01z"/>
	<linearGradient id="SVGID_4_" gradientUnits="userSpaceOnUse" x1="151.9663" y1="295.83" x2="1698.9668" y2="295.83">
		<stop  offset="0" style="stop-color:#07E0FE"/>
		<stop  offset="1" style="stop-color:#F30AD1"/>
	</linearGradient>
	<path class="st3" d="M254.97,549.95V305.82c0-89.58,72.88-162.46,162.46-162.46h585.15c-1.73-34.31-1.95-68.67-0.85-103h-584.3
		c-70.91,0-137.57,27.61-187.71,77.75c-50.14,50.14-77.75,116.8-77.75,187.71v243.22C186.24,551.74,220.65,551.98,254.97,549.95z"/>
	<linearGradient id="SVGID_5_" gradientUnits="userSpaceOnUse" x1="590.2686" y1="558.3651" x2="1291.4666" y2="558.3651">
		<stop  offset="0" style="stop-color:#06E2FE"/>
		<stop  offset="1" style="stop-color:#F608D1"/>
	</linearGradient>
	<path class="st4" d="M940.87,904.37c-47.09,0-92.81-9.07-135.89-26.96c-41.7-17.32-79.17-42.12-111.37-73.73
		c-32.33-31.74-57.73-68.74-75.5-110c-18.47-42.87-27.83-88.39-27.83-135.31s9.36-92.45,27.83-135.31
		c17.77-41.25,43.18-78.26,75.5-110c32.2-31.61,69.67-56.42,111.37-73.73c43.08-17.89,88.8-26.96,135.89-26.96
		c47.09,0,92.81,9.07,135.89,26.96c41.7,17.32,79.17,42.12,111.37,73.73c32.33,31.74,57.73,68.74,75.5,110
		c18.47,42.87,27.83,88.39,27.83,135.31s-9.36,92.45-27.83,135.31c-17.77,41.25-43.18,78.26-75.5,110
		c-32.2,31.61-69.67,56.42-111.37,73.73C1033.68,895.29,987.96,904.37,940.87,904.37z M940.87,308.72
		c-68.76,0-133.32,26.2-181.77,73.77c-47.96,47.09-74.38,109.55-74.38,175.88c0,66.33,26.41,128.79,74.38,175.88
		c48.46,47.57,113.01,73.77,181.77,73.77s133.32-26.2,181.78-73.77c47.96-47.08,74.38-109.55,74.38-175.88
		c0-66.33-26.41-128.79-74.38-175.88C1074.19,334.92,1009.63,308.72,940.87,308.72z"/>
</g>
<g>
	<g>
		<g transform="translate(13.66715, 473.446279)">
			<g>
				<path class="st5" d="M2251.07,20.87l-250.41-275.7h-60.31v636.64c55.76,0,111.5,0,167.24,0V98.86l135.27,141.48h18.27
					l136.18-141.48v282.96c55.74,0,111.5,0,167.24,0v-636.64h-58.49L2251.07,20.87z"/>
			</g>
		</g>
	</g>
	<g>
		<g transform="translate(239.320931, 473.446279)">
			<g>
				<path class="st5" d="M2804.99,115.19l215.69-343.72v-24.49h-177.31L2727.32-41.71h-6.41l-116.06-211.31h-176.39v24.49
					l214.77,343.72v266.62h161.76V115.19z"/>
			</g>
		</g>
	</g>
	<g>
		<g transform="translate(413.809021, 473.446279)">
			<g>
				<path class="st5" d="M3048.18,187.73c-55.76,0-103.28,0-158.11,0c-3.66,279.33,517.28,274.79,517.28,8.17
					c0-158.71-124.29-177.76-251.33-191.35c-57.58-6.36-105.1-16.32-101.44-64.4c5.48-75.27,177.3-82.52,177.3,1.82
					c55.74,0,97.79,0,155.36,0c3.66-273.89-493.51-273.89-488.03,0c1.82,137.85,93.21,185.01,232.13,194.99
					c63.97,3.62,116.98,13.6,116.98,58.04C3248.32,269.36,3048.18,268.46,3048.18,187.73z"/>
			</g>
		</g>
	</g>
	<g>
		<g transform="translate(583.836497, 473.446279)">
			<g>
				<path class="st5" d="M3763.74,381.82h159.94v-23.57l-288.81-619.43h-70.37l-287.89,619.43v23.57h159.94l37.47-79.81h252.25
					L3763.74,381.82z M3673.26,163.26h-146.24l72.21-166.88L3673.26,163.26z"/>
			</g>
		</g>
	</g>
	<g>
		<g transform="translate(770.656828, 473.446279)">
			<g>
				<path class="st5" d="M3909.58-253.02h-157.2v24.49l274.18,617.59h69.46l271.44-617.59v-24.49h-157.2l-146.22,359.14h-4.57
					L3909.58-253.02z"/>
			</g>
		</g>
	</g>
	<g>
		<g transform="translate(954.853304, 473.446279)">
			<g>
				<path class="st5" d="M4677.69-253.02c-149.88,0-251.33,0-399.39,0c0,210.4,0,422.62,0,634.83c148.06,0,257.73,0,407.62,0
					c0-48.06,0-97.03,0-144.19c-95.96,0-150.81,0-244.93,0c0-38.09,0-74.37,0-111.55h217.52c0-48.06,0-96.14,0-144.21h-217.52
					v-89.78c94.12,0,141.65,0,236.7,0C4677.69-156.89,4677.69-205.86,4677.69-253.02z"/>
			</g>
		</g>
	</g>
	<g>
		<g transform="translate(1112.286214, 473.446279)">
			<g>
				<path class="st5" d="M4782.56,187.73c-55.76,0-103.28,0-158.11,0c-3.66,279.33,517.28,274.79,517.28,8.17
					c0-158.71-124.29-177.76-251.33-191.35c-57.58-6.36-105.1-16.32-101.44-64.4c5.48-75.27,177.3-82.52,177.3,1.82
					c55.74,0,97.78,0,155.36,0c3.66-273.89-493.51-273.89-488.03,0c1.82,137.85,93.21,185.01,232.13,194.99
					c63.97,3.62,116.98,13.6,116.98,58.04C4982.7,269.36,4782.56,268.46,4782.56,187.73z"/>
			</g>
		</g>
	</g>
</g>
</svg>
