<?xml version="1.0" encoding="utf-8"?>
<!-- Generator: Adobe Adobe Illustrator 24.2.0, SVG Export Plug-In . SVG Version: 6.00 Build 0)  -->
<svg version="1.1" id="Layer_1" xmlns="http://www.w3.org/2000/svg" xmlns:xlink="http://www.w3.org/1999/xlink" x="0px" y="0px"
	 width="1920px" height="1080px" viewBox="0 0 1920 1080" style="enable-background:new 0 0 1920 1080;" xml:space="preserve">
<style type="text/css">
	.st0{fill:url(#SVGID_1_);}
	.st1{fill:url(#SVGID_2_);}
	.st2{fill:url(#SVGID_3_);}
	.st3{fill:url(#SVGID_4_);}
	.st4{display:none;fill:#FFFFFF;}
	.st5{fill:url(#SVGID_5_);}
</style>
<g>
	<linearGradient id="SVGID_1_" gradientUnits="userSpaceOnUse" x1="151.9663" y1="91.8652" x2="1698.9668" y2="91.8652">
		<stop  offset="0" style="stop-color:#07E0FE"/>
		<stop  offset="1" style="stop-color:#F30AD1"/>
	</linearGradient>
	<path class="st0" d="M1102.58,143.37h154.18c0.37-34.33,0.43-68.67,0.17-103h-155.2C1100.63,74.7,1100.85,109.06,1102.58,143.37z"
		/>
	<linearGradient id="SVGID_2_" gradientUnits="userSpaceOnUse" x1="151.9663" y1="1009.8652" x2="1698.9668" y2="1009.8652">
		<stop  offset="0" style="stop-color:#07E0FE"/>
		<stop  offset="1" style="stop-color:#F30AD1"/>
	</linearGradient>
	<path class="st1" d="M684.57,1026.5c-0.07-17.29-0.28-34.59-0.62-51.88c-0.11-5.42-0.25-10.83-0.39-16.25H576.5
		c0.02,7.52,0.03,15.04,0.06,22.56c0.12,26.82,0.35,53.63,0.64,80.44h107.3C684.58,1049.74,684.62,1038.12,684.57,1026.5z"/>
	<linearGradient id="SVGID_3_" gradientUnits="userSpaceOnUse" x1="151.9663" y1="866.6875" x2="1698.9668" y2="866.6875">
		<stop  offset="0" style="stop-color:#07E0FE"/>
		<stop  offset="1" style="stop-color:#F30AD1"/>
	</linearGradient>
	<path class="st2" d="M1595.97,672.01v123.9c0,89.58-72.88,162.46-162.46,162.46H783.57c0.17,6.75,0.32,13.49,0.45,20.24
		c0.52,27.58,0.67,55.17,0.48,82.76h649c70.91,0,137.57-27.61,187.71-77.75s77.75-116.8,77.75-187.71V673.12
		C1664.63,672.75,1630.3,672.38,1595.97,672.01z"/>
	<linearGradient id="SVGID_4_" gradientUnits="userSpaceOnUse" x1="151.9663" y1="295.83" x2="1698.9668" y2="295.83">
		<stop  offset="0" style="stop-color:#07E0FE"/>
		<stop  offset="1" style="stop-color:#F30AD1"/>
	</linearGradient>
	<path class="st3" d="M254.97,549.95V305.82c0-89.58,72.88-162.46,162.46-162.46h585.15c-1.73-34.31-1.95-68.67-0.85-103h-584.3
		c-70.91,0-137.57,27.61-187.71,77.75c-50.14,50.14-77.75,116.8-77.75,187.71v243.22C186.24,551.74,220.65,551.98,254.97,549.95z"/>
	<path class="st4" d="M293.47,716.91V399.82c0-118.17,95.79-213.96,213.96-213.96h832.08c118.17,0,213.96,95.79,213.96,213.96
		v317.08c0,118.17-95.79,213.96-213.96,213.96H507.43C389.26,930.87,293.47,835.07,293.47,716.91z"/>
	<path class="st4" d="M1087.29,313.87v-256c0-14.36,11.64-26,26-26h9.4c14.36,0,26,11.64,26,26v256c0,14.36-11.64,26-26,26h-9.4
		C1098.93,339.87,1087.29,328.22,1087.29,313.87z"/>
	<path class="st4" d="M9.77,1039.87l0-606c0-9.94,8.06-18,18-18h516c9.94,0,18,8.06,18,18v606c0,9.94-8.06,18-18,18h-516
		C17.83,1057.87,9.77,1049.81,9.77,1039.87z"/>
	<path class="st4" d="M649.77,1045.87v-256c0-14.36,11.64-26,26-26h9.4c14.36,0,26,11.64,26,26v256c0,14.36-11.64,26-26,26h-9.4
		C661.41,1071.87,649.77,1060.22,649.77,1045.87z"/>
	<path class="st4" d="M1261.47,642.87v-606c0-9.94,8.06-18,18-18h548c9.94,0,18,8.06,18,18v606c0,9.94-8.06,18-18,18h-548
		C1269.53,660.87,1261.47,652.81,1261.47,642.87z"/>
	<linearGradient id="SVGID_5_" gradientUnits="userSpaceOnUse" x1="590.2686" y1="558.3651" x2="1291.4666" y2="558.3651">
		<stop  offset="0" style="stop-color:#06E2FE"/>
		<stop  offset="1" style="stop-color:#F608D1"/>
	</linearGradient>
	<path class="st5" d="M940.87,904.37c-47.09,0-92.81-9.07-135.89-26.96c-41.7-17.32-79.17-42.12-111.37-73.73
		c-32.33-31.74-57.73-68.74-75.5-110c-18.47-42.87-27.83-88.39-27.83-135.31s9.36-92.45,27.83-135.31
		c17.77-41.25,43.18-78.26,75.5-110c32.2-31.61,69.67-56.42,111.37-73.73c43.08-17.89,88.8-26.96,135.89-26.96
		c47.09,0,92.81,9.07,135.89,26.96c41.7,17.32,79.17,42.12,111.37,73.73c32.33,31.74,57.73,68.74,75.5,110
		c18.47,42.87,27.83,88.39,27.83,135.31s-9.36,92.45-27.83,135.31c-17.77,41.25-43.18,78.26-75.5,110
		c-32.2,31.61-69.67,56.42-111.37,73.73C1033.68,895.29,987.96,904.37,940.87,904.37z M940.87,308.72
		c-68.76,0-133.32,26.2-181.77,73.77c-47.96,47.09-74.38,109.55-74.38,175.88c0,66.33,26.41,128.79,74.38,175.88
		c48.46,47.57,113.01,73.77,181.77,73.77s133.32-26.2,181.78-73.77c47.96-47.08,74.38-109.55,74.38-175.88
		c0-66.33-26.41-128.79-74.38-175.88C1074.19,334.92,1009.63,308.72,940.87,308.72z"/>
</g>
</svg>
