<?xml version="1.0" encoding="utf-8"?>
<!-- Generator: Adobe Adobe Illustrator 24.2.0, SVG Export Plug-In . SVG Version: 6.00 Build 0)  -->
<svg version="1.1" id="Layer_1" xmlns="http://www.w3.org/2000/svg" xmlns:xlink="http://www.w3.org/1999/xlink" x="0px" y="0px"
	 width="1920px" height="1080px" viewBox="0 0 1920 1080" style="enable-background:new 0 0 1920 1080;" xml:space="preserve">
<style type="text/css">
	.st0{display:none;}
	.st1{display:inline;}
	.st2{clip-path:url(#SVGID_2_);}
	.st3{clip-path:url(#SVGID_6_);}
	.st4{clip-path:url(#SVGID_10_);}
	.st5{clip-path:url(#SVGID_14_);}
	.st6{clip-path:url(#SVGID_18_);}
	.st7{clip-path:url(#SVGID_22_);}
	.st8{clip-path:url(#SVGID_26_);}
	.st9{clip-path:url(#SVGID_30_);}
	.st10{fill:#FFFFFF;}
	.st11{clip-path:url(#SVGID_34_);}
	.st12{clip-path:url(#SVGID_36_);}
	.st13{fill:url(#SVGID_37_);}
	.st14{clip-path:url(#SVGID_39_);}
	.st15{clip-path:url(#SVGID_41_);}
	.st16{clip-path:url(#SVGID_43_);}
	.st17{clip-path:url(#SVGID_45_);}
	.st18{clip-path:url(#SVGID_47_);}
	.st19{clip-path:url(#SVGID_49_);}
	.st20{clip-path:url(#SVGID_51_);}
	.st21{clip-path:url(#SVGID_53_);}
	.st22{clip-path:url(#SVGID_55_);}
	.st23{clip-path:url(#SVGID_57_);}
	.st24{clip-path:url(#SVGID_59_);}
	.st25{clip-path:url(#SVGID_61_);}
	.st26{fill:url(#SVGID_62_);}
	.st27{clip-path:url(#SVGID_64_);}
	.st28{clip-path:url(#SVGID_66_);}
	.st29{clip-path:url(#SVGID_68_);}
	.st30{clip-path:url(#SVGID_72_);}
	.st31{clip-path:url(#SVGID_76_);}
	.st32{clip-path:url(#SVGID_80_);}
	.st33{clip-path:url(#SVGID_84_);}
	.st34{clip-path:url(#SVGID_88_);}
	.st35{clip-path:url(#SVGID_92_);}
	.st36{clip-path:url(#SVGID_96_);}
	.st37{fill:url(#SVGID_99_);}
	.st38{fill:url(#SVGID_100_);}
</style>
<g>
	<g>
		<g>
			<linearGradient id="SVGID_2_" gradientUnits="userSpaceOnUse" x1="203.4665" y1="550.8651" x2="1647.4666" y2="550.8651">
				<stop  offset="0" style="stop-color:#06E2FE"/>
				<stop  offset="0.3297" style="stop-color:#5F91ED"/>
				<stop  offset="0.6573" style="stop-color:#B147DE"/>
				<stop  offset="0.8873" style="stop-color:#E319D5"/>
				<stop  offset="1" style="stop-color:#F707D1"/>
			</linearGradient>
			<path style="fill:url(#SVGID_2_);" d="M203.47,795.91V305.82c0-118.17,95.79-213.96,213.96-213.96h1016.08
				c118.17,0,213.96,95.79,213.96,213.96v490.08c0,118.17-95.79,213.96-213.96,213.96H417.43
				C299.26,1009.87,203.47,914.07,203.47,795.91z"/>
			<path class="st10" d="M293.47,716.91V399.82c0-118.17,95.79-213.96,213.96-213.96h832.08c118.17,0,213.96,95.79,213.96,213.96
				v317.08c0,118.17-95.79,213.96-213.96,213.96H507.43C389.26,930.87,293.47,835.07,293.47,716.91z"/>
			<path class="st10" d="M1087.29,313.87v-256c0-14.36,11.64-26,26-26h9.4c14.36,0,26,11.64,26,26v256c0,14.36-11.64,26-26,26h-9.4
				C1098.93,339.87,1087.29,328.22,1087.29,313.87z"/>
			<path class="st10" d="M649.77,1045.87v-256c0-14.36,11.64-26,26-26h9.4c14.36,0,26,11.64,26,26v256c0,14.36-11.64,26-26,26h-9.4
				C661.41,1071.87,649.77,1060.22,649.77,1045.87z"/>
			<path class="st10" d="M1245.77,655.87v-606c0-9.94,8.06-18,18-18h548c9.94,0,18,8.06,18,18v606c0,9.94-8.06,18-18,18h-548
				C1253.83,673.87,1245.77,665.81,1245.77,655.87z"/>
			<path class="st10" d="M9.77,1039.87l0-606c0-9.94,8.06-18,18-18h516c9.94,0,18,8.06,18,18v606c0,9.94-8.06,18-18,18h-516
				C17.83,1057.87,9.77,1049.81,9.77,1039.87z"/>
			<linearGradient id="SVGID_4_" gradientUnits="userSpaceOnUse" x1="609.7686" y1="558.3651" x2="1245.7686" y2="558.3651">
				<stop  offset="0" style="stop-color:#03E4FE"/>
				<stop  offset="1" style="stop-color:#F805D0"/>
			</linearGradient>
			<ellipse style="fill:url(#SVGID_4_);" cx="927.77" cy="558.37" rx="318" ry="306"/>
			<ellipse class="st10" cx="927.77" cy="558.37" rx="248" ry="247"/>
		</g>
	</g>
</g>
</svg>
