<svg width="726" height="885" viewBox="0 0 726 885" fill="none" xmlns="http://www.w3.org/2000/svg">
<rect width="726" height="885" rx="50" fill="url(#paint0_linear_2_500)"/>
<path d="M418.243 34.5976L451.961 21.443L476.955 75.4753M418.243 34.5976L384.981 49.185M418.243 34.5976L430.921 61.6311M384.981 49.185L352.423 65.0933L320.776 82.2294L290.27 100.463M384.981 49.185L397.811 76.1253M290.27 100.463L261.133 119.683M290.27 100.463L303.556 127.255M261.133 119.683L233.592 139.759M261.133 119.683L287.951 172.971M233.592 139.759L207.838 160.542M233.592 139.759L274.134 219.3M207.838 160.542L184.117 181.884M207.838 160.542L248.912 240.12M184.117 181.884L162.621 203.653L143.557 225.663M184.117 181.884L198.125 208.694M143.557 225.663L127.135 247.768M143.557 225.663L157.926 252.604M127.135 247.768L113.507 269.798M127.135 247.768L156.063 301.539M113.507 269.798L102.882 291.548M113.507 269.798L128.218 296.905M102.882 291.548L95.4127 312.833L91.2312 333.449M102.882 291.548L117.764 318.768M91.2312 333.449L90.5089 353.227L93.3029 371.908L99.7083 389.323L109.592 404.971L109.782 405.25M91.2312 333.449L106.437 360.967M109.782 405.25L112.936 410.943L113.906 412.655L124.968 432.601L125.481 433.457L129.644 440.955L141.029 461.385L154.904 476.009L172.371 488.773L193.335 499.471L217.664 507.918M109.782 405.25L114.686 410.366L120.863 416.767L122.725 418.702M122.725 418.702L123.505 419.502M122.725 418.702L121.053 408.263L105.847 380.874M123.505 419.502L136.012 441.996L139.281 447.895L185.677 531.361L203.239 544.515M123.505 419.502L136.22 428.544M136.22 428.544L140.858 431.856L147.434 435.094M136.22 428.544L136.41 415.167M147.434 435.094L151.958 437.308M147.434 435.094L136.41 415.167M151.958 437.308L161.746 442.127L169.9 444.825M151.958 437.308L154.752 420.693L140.135 394.123M169.9 444.825L186.056 450.165M169.9 444.825L175.907 425.102L147.112 372.447L157.242 350.361L170.338 328.052L186.247 305.688M186.056 450.165L190.048 450.983L190.124 451.002M186.056 450.165L201.945 479.19M190.124 451.002L213.046 455.691M190.124 451.002L199.741 428.656M213.046 455.691L213.597 455.803M213.046 455.691L213.635 454.276L199.741 428.656M213.597 455.803L214.528 455.895L238.895 458.389M213.597 455.803L229.486 485.051M238.895 458.389L244.16 458.928L275.673 517.537M238.895 458.389L239.694 456.919L254.766 434.201M275.673 517.537L245.186 513.983M275.673 517.537L308.802 518.467M275.673 517.537L306.502 574.9M306.502 574.9L339.517 576.221L374.794 574.844M306.502 574.9L276.11 570.937L245.186 513.983M306.502 574.9L321.688 603.126L354.627 604.651L389.808 603.46M374.794 574.844L411.99 570.751L450.65 563.904M374.794 574.844L389.808 603.46M374.794 574.844L344.268 516.7M450.65 563.904L490.317 554.378L530.536 542.265M450.65 563.904L465.418 592.874M450.65 563.904L389.942 444.806M530.536 542.265L544.961 571.551M530.536 542.265L471.197 421.828M464.506 48.5882L430.921 61.6311M430.921 61.6311L397.811 76.1253M430.921 61.6311L443.503 88.4064M397.811 76.1253L365.404 91.9591M397.811 76.1253L410.526 102.808M365.404 91.9591L333.91 109.039L303.556 127.255M365.404 91.9591L352.423 65.0921M365.404 91.9591L403.627 171.11M303.556 127.255L274.609 146.456L247.22 166.514L221.656 187.315L198.125 208.694M303.556 127.255L316.747 153.788M198.125 208.694L176.8 230.5L157.926 252.604M198.125 208.694L211.981 235.265M157.926 252.604L141.675 274.783L128.218 296.905M157.926 252.604L186.247 305.688M128.218 296.905L117.764 318.768M128.218 296.905L171.535 376.707M171.535 376.707L161.575 398.904L154.752 420.691L167.6 444.061M171.535 376.707L184.459 354.306M171.535 376.707L199.741 428.656M476.955 75.4753L443.503 88.4064M476.955 75.4753L489.272 102.119M443.503 88.4064L410.526 102.808M443.503 88.4064L455.953 114.938M410.526 102.808L378.253 118.586L346.929 135.61L316.747 153.788M410.526 102.808L435.615 155.481M316.747 153.788L287.951 172.971M316.747 153.788L329.805 180.078M287.951 172.971L260.753 193.029L235.36 213.849L211.981 235.265M287.951 172.971L314.276 225.273M211.981 235.265L190.846 257.127L172.143 279.268L156.063 301.539M211.981 235.265L225.724 261.573M156.063 301.539L142.796 323.755L132.514 345.747M156.063 301.539L184.459 354.306M132.514 345.747L125.367 367.275L140.135 394.123M132.514 345.747L117.764 318.768M132.514 345.747L147.111 372.446L140.135 394.123M140.135 394.123L136.41 415.167M489.272 102.119L455.953 114.938M489.272 102.119L501.493 128.521M455.953 114.938L423.129 129.265L391.007 144.969L359.817 161.937M455.953 114.938L468.307 141.248M359.817 161.937L329.805 180.078M359.817 161.937L422.597 290.078M359.817 161.937L320.777 82.2297M329.805 180.078L301.162 199.243L274.134 219.3M329.805 180.078L342.748 206.127M274.134 219.3L248.912 240.12M274.134 219.3L287.4 245.33M248.912 240.12L225.724 261.573M248.912 240.12L314.923 368M225.724 261.573L204.778 283.472M225.724 261.573L239.351 287.64M204.778 283.472L186.247 305.688M204.778 283.472L162.622 203.652M204.778 283.472L259.176 386.512M186.247 305.688L200.197 331.867M501.493 128.521L468.307 141.248M501.493 128.521L525.575 180.618M468.307 141.248L435.615 155.481M468.307 141.248L492.655 193.14M435.615 155.481L403.627 171.11M435.615 155.481L447.969 181.454M403.627 171.11L372.608 188.042L342.748 206.127M403.627 171.11L416.152 197.027M342.748 206.127L314.276 225.273M342.748 206.127L368.274 257.536M314.276 225.273L287.4 245.33M314.276 225.273L340.125 276.625M287.4 245.33L262.368 266.169L239.351 287.64M287.4 245.33L326.498 322.004M239.351 287.64L218.558 309.595L200.197 331.867M239.351 287.64L266.208 339.068M200.197 331.867L184.459 354.306M200.197 331.867L241.31 408.969M184.459 354.306L212.342 406.087M199.741 428.656L212.342 406.087M513.581 154.68L480.528 167.313L447.969 181.454M447.969 181.454L416.152 197.027M447.969 181.454L460.229 207.206M416.152 197.027L385.266 213.885L355.558 231.951L327.257 251.059L300.553 271.117L275.673 291.974L252.827 313.464L232.223 335.475L214.034 357.802L198.467 380.316L185.694 402.811L175.906 425.101L190.047 450.982M416.152 197.027L428.545 222.705M525.575 180.618L492.655 193.14M525.575 180.618L549.258 231.766L516.585 244.102L484.426 258.001L453.026 273.37L422.597 290.078M492.655 193.14L460.229 207.206M492.655 193.14L516.584 244.102M460.229 207.206L428.545 222.705M460.229 207.206L484.424 258M428.545 222.705L397.811 239.506L368.274 257.536M428.545 222.705L440.843 248.138M368.274 257.536L340.125 276.625M368.274 257.536L393.344 308.014M340.125 276.625L313.592 296.683L288.883 317.54L266.208 339.068M340.125 276.625L365.518 327.066M266.208 339.068L245.756 361.116L227.738 383.499L212.342 406.087M266.208 339.068L292.571 389.565M212.342 406.087L239.693 456.919M537.474 206.312L504.668 218.74L472.394 232.714L440.843 248.138M440.843 248.138L410.261 264.902L380.858 282.894L352.88 301.965L326.498 322.004M440.843 248.138L453.026 273.369M326.498 322.004L301.96 342.88L279.437 364.426L259.176 386.512M326.498 322.004L339.309 347.105M259.176 386.512L241.31 408.969M259.176 386.512L272.462 411.687M241.31 408.969L226.085 431.613L213.636 454.275L214.529 455.894M241.31 408.969L254.766 434.201M422.597 290.078L393.345 308.014L365.519 327.067L339.309 347.105M339.309 347.105L314.923 368M314.923 368L292.571 389.565M292.571 389.565L272.462 411.687M272.462 411.687L254.766 434.201M350.731 452.378L366.298 482.464M350.731 452.378L313.078 457.27L277.422 459.43M350.731 452.378L389.942 444.804L430.255 434.59M366.298 482.464L381.694 512.215M366.298 482.464L328.759 487.134M366.298 482.464L405.375 475.077L445.518 465.03M381.694 512.215L396.918 541.631M381.694 512.215L344.268 516.7M381.694 512.215L420.619 505.015L460.628 495.154M396.918 541.631L359.626 545.929L324.235 547.492M396.918 541.631L435.711 534.616L475.549 524.922M396.918 541.631L441.622 628.019M441.622 628.019L456.219 656.208M441.622 628.019L404.673 631.778L369.568 632.764L336.705 631.052M441.622 628.019L480.016 621.545M456.219 656.208L470.645 684.098M456.219 656.208L419.384 659.78L384.354 660.598M456.219 656.208L494.461 649.9L533.672 640.857M470.645 684.098L433.923 687.485M470.645 684.098L508.772 677.939L547.813 669.064M313.078 457.272L328.759 487.134M328.759 487.134L344.268 516.7M328.759 487.134L293.197 489.106M344.268 516.7L308.802 518.467M389.808 603.46L426.891 599.535L465.418 592.874M389.808 603.46L433.923 687.485M433.923 687.485L399.008 688.117M277.422 459.43L293.197 489.106M277.422 459.43L244.16 458.926M293.197 489.106L308.802 518.467M293.197 489.106L259.992 488.399L229.486 485.051M308.802 518.467L324.235 547.492M324.235 547.492L291.164 546.375L260.734 542.617L233.231 536.346L208.883 527.676L187.881 516.773M324.235 547.492L384.354 660.598M384.354 660.598L399.008 688.117M384.354 660.598L351.568 658.7M399.008 688.117L366.259 686.053M229.486 485.051L245.186 513.983M229.486 485.051L201.945 479.19M245.186 513.983L217.664 507.918M460.628 495.154L501.189 482.706M460.628 495.154L475.549 524.922M460.628 495.154L445.518 465.03M201.945 479.19L217.664 507.918M201.945 479.19L177.617 470.947L156.691 460.453M217.664 507.918L278.942 619.852M278.942 619.852L293.862 647.11L321.289 654.161M278.942 619.852L254.575 610.604L233.497 599.124M278.942 619.852L306.389 626.717M321.289 654.161L336.057 681.327L366.259 686.053M321.289 654.161L306.389 626.717M321.289 654.161L351.568 658.7M366.259 686.053L351.568 658.7M161.747 442.125L167.526 452.601L239.504 583.253M239.504 583.253L218.444 571.959M239.504 583.253L263.87 592.295L291.335 598.975M239.504 583.253L269.497 637.675L293.864 647.108L308.632 674.106L336.059 681.325M430.255 434.59L471.196 421.826M430.255 434.59L445.518 465.03M140.858 431.855L150.077 448.489L156.691 460.453M156.691 460.453L139.28 447.894L125.481 433.456L124.968 432.6L115.313 417.342M156.691 460.453L187.881 516.773M187.881 516.773L203.239 544.515M187.881 516.773L170.375 503.823L156.405 489.013M203.239 544.515L218.444 571.959M203.239 544.515L224.28 555.605L248.627 564.461L276.111 570.936L291.335 598.975M218.444 571.959L200.824 558.637M218.444 571.959L233.497 599.124M291.335 598.975L306.389 626.717M291.335 598.975L321.69 603.125L336.705 631.052M306.389 626.717L336.705 631.052M336.705 631.052L351.568 658.7M533.672 640.857L573.377 629.173M533.672 640.857L547.813 669.064M533.672 640.857L475.549 524.922M480.016 621.545L519.379 612.335L559.237 600.52M480.016 621.545L465.418 592.874M480.016 621.545L508.773 677.941M559.237 600.52L544.961 571.551M559.237 600.52L587.347 657.53M465.418 592.874L504.933 583.515L544.961 571.551M99.7081 389.322L115.313 417.342M115.313 417.342L122.63 430.496L130.765 445.065M445.518 465.03L486.268 452.434M93.3024 371.906L105.467 393.787L108.793 399.74M108.793 399.74L111.492 407.034M108.793 399.74L105.847 380.874M108.793 399.74L114.686 410.365M130.765 445.065L141.029 461.383L156.405 489.013M130.765 445.065L138.158 458.369L146.046 472.528M156.405 489.013L146.046 472.528M156.405 489.013L171.629 516.364M475.549 524.922L515.938 512.642M90.5089 353.226L105.847 380.874M105.847 380.874L106.437 360.967M547.813 669.064L587.347 657.528M106.437 360.967L110.466 340.184L117.764 318.768M106.437 360.967L121.509 388.188L136.41 415.167M146.046 472.528L161.195 499.693L171.629 516.364M171.629 516.364L185.676 531.36L200.824 558.637M171.629 516.364L175.944 524.086L186.721 543.436L200.824 558.637M200.824 558.637L215.82 585.616L233.497 599.124M233.497 599.124L248.379 626.029L269.496 637.676L284.264 664.487L308.631 674.106M95.4129 312.831L125.368 367.272L121.509 388.186L121.053 408.262L129.758 423.947M161.196 499.693L168.742 513.275L176.174 526.616M176.174 526.616L186.722 543.436L191.056 551.25L201.643 570.247L215.822 585.616L230.666 612.334L248.38 626.029L263.13 652.654M176.174 526.616L205.71 579.643M263.13 652.654L284.265 664.487M263.13 652.654L245.358 638.792L231.065 623.088L220.554 605.263M205.71 579.643L213.484 593.597L220.554 605.263M205.71 579.643L216.43 596.798L220.554 605.263M191.017 553.26L201.641 570.248L216.429 596.799L230.665 612.335L245.357 638.792" stroke="#F30AD1" stroke-opacity="0.3" stroke-width="1.08501" stroke-linecap="round" stroke-linejoin="round"/>
<defs>
<linearGradient id="paint0_linear_2_500" x1="363" y1="0" x2="363" y2="885" gradientUnits="userSpaceOnUse">
<stop stop-color="#07E0FE"/>
<stop offset="1" stop-color="#D9D9D9" stop-opacity="0"/>
</linearGradient>
</defs>
</svg>
